name Walk4.mot
datacolumns 19
datarows 12
range 1.21500000 1.27000000
endheader

                time	   L_ground_force_vx	   L_ground_force_vy	   L_ground_force_vz	   L_ground_force_px	   L_ground_force_py	   L_ground_force_pz	   R_ground_force_vx	   R_ground_force_vy	   R_ground_force_vz	   R_ground_force_px	   R_ground_force_py	   R_ground_force_pz	   L_ground_torque_x	   L_ground_torque_y	   L_ground_torque_z	   R_ground_torque_x	   R_ground_torque_y	   R_ground_torque_z	
          1.21500000	         -2.37442983	          3.29016591	          0.32322653	         -0.10814930	          0.00000000	         -0.00988114	          0.00000000	         -0.00000000	         -0.00000000	          0.00000000	          0.00000000	          0.00000000	          0.00000000	         -0.00292062	          0.00000000	          0.00000000	         -0.00000000	          0.00000000	
          1.22000000	        -12.97301380	         64.37196748	         -0.55943958	         -0.33536267	          0.00000000	         -0.02716528	         -0.00000000	          0.00000000	         -0.00000000	          0.00000000	          0.00000000	          0.00000000	          0.00000000	          0.08477801	          0.00000000	          0.00000000	          0.00000000	          0.00000000	
          1.22500000	        -24.26251573	        178.88674733	         -4.94892065	         -0.44854019	          0.00000000	         -0.03234957	         -0.00000000	          0.00000000	         -0.00000000	          0.00000000	          0.00000000	          0.00000000	          0.00000000	          0.24675145	          0.00000000	          0.00000000	          0.00000000	          0.00000000	
          1.23000000	        -26.85292089	        262.93302466	        -13.53198764	         -0.45604595	          0.00000000	         -0.03073705	          0.00000000	          0.00000000	          0.00000000	         -0.00000000	          0.00000000	         -0.00000000	          0.00000000	          0.30759152	          0.00000000	          0.00000000	         -0.00000000	          0.00000000	
          1.23500000	        -25.45577036	        278.09454418	        -21.30639891	         -0.44431556	          0.00000000	         -0.02954425	          0.00000000	         -0.00000000	          0.00000000	         -0.00000000	          0.00000000	         -0.00000000	          0.00000000	          0.29364301	          0.00000000	          0.00000000	         -0.00000000	          0.00000000	
          1.24000000	        -26.99567522	        282.21173400	        -24.32648924	         -0.43850646	          0.00000000	         -0.02971884	          0.00000000	         -0.00000000	          0.00000000	         -0.00000000	          0.00000000	         -0.00000000	          0.00000000	          0.34544301	          0.00000000	          0.00000000	         -0.00000000	          0.00000000	
          1.24500000	        -33.22223490	        306.36464979	        -23.69533331	         -0.43648850	          0.00000000	         -0.03068509	         -0.00000000	          0.00000000	         -0.00000000	          0.00000000	          0.00000000	          0.00000000	          0.00000000	          0.51254518	          0.00000000	          0.00000000	          0.00000000	          0.00000000	
          1.25000000	        -42.98790380	        332.86576073	        -20.14789417	         -0.43413766	          0.00000000	         -0.03215892	         -0.00000000	          0.00000000	         -0.00000000	          0.00000000	          0.00000000	          0.00000000	          0.00000000	          0.69190982	          0.00000000	          0.00000000	          0.00000000	          0.00000000	
          1.25500000	        -52.17127593	        348.22295492	        -13.27857714	         -0.43081604	          0.00000000	         -0.03413462	         -0.00000000	          0.00000000	          0.00000000	          0.00000000	          0.00000000	          0.00000000	          0.00000000	          0.73723460	          0.00000000	          0.00000000	          0.00000000	          0.00000000	
          1.26000000	        -57.38707588	        359.01478907	         -5.12455407	         -0.42743409	          0.00000000	         -0.03639513	          0.00000000	         -0.00000000	          0.00000000	         -0.00000000	          0.00000000	         -0.00000000	          0.00000000	          0.69244229	          0.00000000	          0.00000000	         -0.00000000	          0.00000000	
          1.26500000	        -58.73651996	        372.24671785	          1.38890389	         -0.42425380	          0.00000000	         -0.03834882	          0.00000000	         -0.00000000	          0.00000000	         -0.00000000	          0.00000000	         -0.00000000	          0.00000000	          0.66398333	          0.00000000	          0.00000000	         -0.00000000	          0.00000000	
          1.27000000	        -58.29780224	        385.81524353	          5.73593191	         -0.42166785	          0.00000000	         -0.03980779	          0.00000000	         -0.00000000	         -0.00000000	          0.00000000	          0.00000000	          0.00000000	          0.00000000	          0.68473478	          0.00000000	          0.00000000	         -0.00000000	          0.00000000	
